<?xml version="1.0" encoding="UTF-8" standalone="no"?>
<!DOCTYPE svg PUBLIC "-//W3C//DTD SVG 1.1//EN" "http://www.w3.org/Graphics/SVG/1.1/DTD/svg11.dtd">
<!-- Created with Vectornator (http://vectornator.io/) -->
<svg height="100%" stroke-miterlimit="10" style="fill-rule:nonzero;clip-rule:evenodd;stroke-linecap:round;stroke-linejoin:round;" version="1.1" viewBox="0 0 375 375" width="100%" xml:space="preserve" xmlns="http://www.w3.org/2000/svg" xmlns:vectornator="http://vectornator.io" xmlns:xlink="http://www.w3.org/1999/xlink">
<defs/>
<g id="Untitled" vectornator:layerName="Untitled">
<g opacity="1">
<path d="M161.467 220.214L168.118 243.496C170.087 250.369 189.262 253.523 213.63 247.051C238 240.58 252.796 228.406 250.835 221.528L243.133 194.566L202.944 226.419L161.467 220.214" fill="#43bccd" fill-rule="evenodd" opacity="1" stroke="none"/>
</g>
<path d="M138.229 212.481L187.949 172.021C187.949 172.021 247.955 180.831 248.036 181.392C248.117 181.953 206.756 193.122 206.756 193.122C206.756 193.122 205.595 193.558 206.12 194.866C206.644 196.175 206.917 195.73 207.622 196.035C208.328 196.34 248.22 185.074 248.22 185.074L234.396 196.257L202.225 222.281L138.229 212.481Z" fill="#43bccd" fill-rule="evenodd" opacity="1" stroke="none"/>
<path d="M260.408 221.458C260.408 221.458 265.812 224.163 269.565 230.449C273.318 236.735 273.843 236.1 274.886 240.579C275.2 241.932 275.489 242.869 275.267 243.452C274.793 244.696 274.397 244.865 273.895 245.61C273.298 246.494 273.177 246.369 272.25 247.198C271.582 247.796 270.067 247.744 267.85 248.594C263.219 250.371 261.685 250.593 259.655 250.281C259.053 250.188 258.656 250.104 257.116 249.373C256.246 248.96 255.086 248.578 254.005 246.281C251.954 241.921 253.489 227.856 256.872 222.363" fill="#fddf19" fill-rule="evenodd" opacity="1" stroke="none"/>
<path d="M255.571 221.325L251.03 205.102L248.415 195.761L244.731 182.599C244.731 182.599 244.411 180.617 246.894 179.741C249.378 178.864 250.435 180.937 250.435 180.937L261.132 219.901" fill="#43bccd" fill-rule="evenodd" opacity="1" stroke="none"/>
<path d="M169.19 186.157C167.78 178.722 168.004 169.875 172.65 172.426C175.635 174.065 173.528 172.953 178.151 175.411C182.691 177.824 180.983 177.198 182.248 177.635C185.639 178.804 187.31 178.674 188.051 182.581C189.461 190.017 186.381 196.845 181.173 197.832C175.964 198.819 170.599 193.592 169.19 186.157Z" fill="#f9f9f9" fill-rule="evenodd" opacity="1" stroke="#272330" stroke-linecap="butt" stroke-linejoin="round" stroke-width="0.400518"/>
<path d="M173.579 183.628C173.579 180.952 175.808 178.782 178.557 178.782C181.307 178.782 183.535 180.952 183.535 183.628C183.535 186.305 181.307 188.475 178.557 188.475C175.808 188.475 173.579 186.305 173.579 183.628Z" fill="#000000" fill-rule="evenodd" opacity="1" stroke="none"/>
<path d="M179.778 180.227C179.778 179.716 180.214 179.302 180.753 179.302C181.291 179.302 181.728 179.716 181.728 180.227C181.728 180.738 181.291 181.152 180.753 181.152C180.214 181.152 179.778 180.738 179.778 180.227Z" fill="#f9f9f9" fill-rule="evenodd" opacity="1" stroke="none"/>
<path d="M194.763 178.915C195.064 174.884 198.841 174.088 200.917 171.783C203.024 169.442 204.253 168.505 205.774 166.047C208.639 161.419 212.214 167.905 213.624 175.34C215.033 182.775 211.954 189.603 206.745 190.59C201.537 191.578 194.198 186.462 194.763 178.915Z" fill="#f9f9f9" fill-rule="evenodd" opacity="1" stroke="#272330" stroke-linecap="butt" stroke-linejoin="round" stroke-width="0.489275"/>
<path d="M199.678 177.442C199.678 174.766 201.907 172.596 204.656 172.596C206.248 172.596 207.666 173.323 208.577 174.456C209.239 175.279 209.634 176.316 209.634 177.442C209.634 180.119 207.405 182.289 204.656 182.289C201.907 182.289 199.678 180.119 199.678 177.442Z" fill="#000000" fill-rule="evenodd" opacity="1" stroke="none"/>
<path d="M205.89 174.167C205.89 173.656 206.327 173.242 206.865 173.242C207.404 173.242 207.84 173.656 207.84 174.167C207.84 174.678 207.404 175.092 206.865 175.092C206.327 175.092 205.89 174.678 205.89 174.167Z" fill="#f9f9f9" fill-rule="evenodd" opacity="1" stroke="none"/>
<path d="M209.772 206.901C201.076 201.733 189.671 209.683 184.834 212.471" fill="#000000" fill-opacity="0" fill-rule="evenodd" opacity="1" stroke="#272330" stroke-linecap="round" stroke-linejoin="round" stroke-width="1.60207"/>
</g>
</svg>


