<?xml version="1.0" encoding="UTF-8" standalone="no"?>
<!DOCTYPE svg PUBLIC "-//W3C//DTD SVG 1.1//EN" "http://www.w3.org/Graphics/SVG/1.1/DTD/svg11.dtd">
<!-- Created with Vectornator (http://vectornator.io/) -->
<svg height="100%" stroke-miterlimit="10" style="fill-rule:nonzero;clip-rule:evenodd;stroke-linecap:round;stroke-linejoin:round;" version="1.1" viewBox="0 0 375 375" width="100%" xml:space="preserve" xmlns="http://www.w3.org/2000/svg" xmlns:vectornator="http://vectornator.io" xmlns:xlink="http://www.w3.org/1999/xlink">
<defs/>
<g id="Untitled" vectornator:layerName="Untitled">
<g opacity="1">
<path d="M161.467 220.214L168.118 243.496C170.087 250.369 189.262 253.523 213.63 247.051C238 240.58 252.796 228.406 250.835 221.528L243.133 194.566L202.944 226.419L161.467 220.214" fill="#43bccd" fill-rule="evenodd" opacity="1" stroke="none"/>
</g>
<path d="M138.229 212.481L187.949 172.021C187.949 172.021 248.418 183.331 248.499 183.892C248.58 184.453 208.573 194.543 208.348 194.593C208.197 194.627 207.522 194.883 207.445 194.886C207.368 194.889 207.034 194.916 207.044 195.082C207.057 195.299 207.514 195.14 207.657 195.097C207.965 195.004 207.957 195.044 208.448 194.893C208.852 194.768 248.743 184.392 248.743 184.392L234.396 196.257L202.225 222.281L138.229 212.481Z" fill="#43bccd" fill-rule="evenodd" opacity="1" stroke="none"/>
<path d="M258.795 224.483C258.795 224.483 264.199 227.188 267.952 233.474C271.705 239.76 272.229 239.125 273.272 243.604C273.587 244.957 273.875 245.894 273.653 246.477C273.179 247.721 272.784 247.891 272.281 248.636C271.684 249.52 271.563 249.394 270.637 250.224C269.969 250.822 268.453 250.769 266.237 251.62C261.606 253.396 260.072 253.618 258.042 253.306C257.439 253.213 257.042 253.13 255.502 252.398C254.633 251.985 253.472 251.603 252.392 249.306C250.34 244.946 251.876 230.881 255.259 225.388" fill="#fddf19" fill-rule="evenodd" opacity="1" stroke="none"/>
<path d="M253.932 225.123L249.391 208.9L246.776 199.559L243.092 186.397C243.092 186.397 242.772 184.415 245.255 183.539C247.739 182.662 248.796 184.735 248.796 184.735L259.493 223.699" fill="#43bccd" fill-rule="evenodd" opacity="1" stroke="none"/>
<path d="M169.19 186.157C167.78 178.722 170.86 171.894 176.068 170.907C181.277 169.919 186.641 175.146 188.051 182.581C189.461 190.017 186.381 196.845 181.173 197.832C175.964 198.819 170.599 193.592 169.19 186.157Z" fill="#f9f9f9" fill-rule="evenodd" opacity="1" stroke="#272330" stroke-linecap="butt" stroke-linejoin="round" stroke-width="0.400518"/>
<path d="M173.579 183.628C173.579 180.952 175.808 178.782 178.557 178.782C181.307 178.782 183.535 180.952 183.535 183.628C183.535 186.305 181.307 188.475 178.557 188.475C175.808 188.475 173.579 186.305 173.579 183.628Z" fill="#000000" fill-rule="evenodd" opacity="1" stroke="none"/>
<path d="M179.778 180.227C179.778 179.716 180.214 179.302 180.753 179.302C181.291 179.302 181.728 179.716 181.728 180.227C181.728 180.738 181.291 181.152 180.753 181.152C180.214 181.152 179.778 180.738 179.778 180.227Z" fill="#f9f9f9" fill-rule="evenodd" opacity="1" stroke="none"/>
<path d="M194.763 178.915C193.353 171.48 196.433 164.652 201.641 163.665C206.849 162.677 212.214 167.905 213.624 175.34C215.033 182.775 211.954 189.603 206.745 190.59C201.537 191.578 196.172 186.351 194.763 178.915Z" fill="#f9f9f9" fill-rule="evenodd" opacity="1" stroke="#272330" stroke-linecap="butt" stroke-linejoin="round" stroke-width="0.489275"/>
<path d="M199.678 177.442C199.678 174.766 201.907 172.596 204.656 172.596C206.248 172.596 207.666 173.323 208.577 174.456C209.239 175.279 209.634 176.316 209.634 177.442C209.634 180.119 207.405 182.289 204.656 182.289C201.907 182.289 199.678 180.119 199.678 177.442Z" fill="#000000" fill-rule="evenodd" opacity="1" stroke="none"/>
<path d="M205.89 174.167C205.89 173.656 206.327 173.242 206.865 173.242C207.404 173.242 207.84 173.656 207.84 174.167C207.84 174.678 207.404 175.092 206.865 175.092C206.327 175.092 205.89 174.678 205.89 174.167Z" fill="#f9f9f9" fill-rule="evenodd" opacity="1" stroke="none"/>
<path d="M185.176 213.005C194.29 217.762 204.958 208.102 209.533 204.634" fill="#000000" fill-opacity="0" fill-rule="evenodd" opacity="1" stroke="#272330" stroke-linecap="round" stroke-linejoin="round" stroke-width="1.60207"/>
</g>
</svg>


