<?xml version="1.0" encoding="UTF-8" standalone="no"?>
<!DOCTYPE svg PUBLIC "-//W3C//DTD SVG 1.1//EN" "http://www.w3.org/Graphics/SVG/1.1/DTD/svg11.dtd">
<!-- Created with Vectornator (http://vectornator.io/) -->
<svg height="100%" stroke-miterlimit="10" style="fill-rule:nonzero;clip-rule:evenodd;stroke-linecap:round;stroke-linejoin:round;" version="1.1" viewBox="0 0 375 375" width="100%" xml:space="preserve" xmlns="http://www.w3.org/2000/svg" xmlns:vectornator="http://vectornator.io" xmlns:xlink="http://www.w3.org/1999/xlink">
<defs/>
<g id="Untitled" vectornator:layerName="Untitled">
<g opacity="1">
<path d="M161.467 220.214L168.118 243.496C170.087 250.369 189.262 253.523 213.63 247.051C238 240.58 252.796 228.406 250.835 221.528L243.133 194.566L202.944 226.419L161.467 220.214" fill="#43bccd" fill-rule="evenodd" opacity="1" stroke="none"/>
</g>
<path d="M138.229 212.481L187.949 172.021C187.949 172.021 247.955 180.831 248.036 181.392C248.117 181.953 206.756 193.122 206.756 193.122C206.756 193.122 205.595 193.558 206.12 194.866C206.644 196.175 206.917 195.73 207.622 196.035C208.328 196.34 248.22 185.074 248.22 185.074L234.396 196.257L202.225 222.281L138.229 212.481Z" fill="#43bccd" fill-rule="evenodd" opacity="1" stroke="none"/>
<path d="M260.408 221.458C260.408 221.458 265.812 224.163 269.565 230.449C273.318 236.735 273.843 236.1 274.886 240.579C275.2 241.932 275.489 242.869 275.267 243.452C274.793 244.696 274.397 244.865 273.895 245.61C273.298 246.494 273.177 246.369 272.25 247.198C271.582 247.796 270.067 247.744 267.85 248.594C263.219 250.371 261.685 250.593 259.655 250.281C259.053 250.188 258.656 250.104 257.116 249.373C256.246 248.96 255.086 248.578 254.005 246.281C251.954 241.921 253.489 227.856 256.872 222.363" fill="#fddf19" fill-rule="evenodd" opacity="1" stroke="none"/>
<path d="M255.571 221.325L251.03 205.102L248.415 195.761L244.731 182.599C244.731 182.599 244.411 180.617 246.894 179.741C249.378 178.864 250.435 180.937 250.435 180.937L261.132 219.901" fill="#43bccd" fill-rule="evenodd" opacity="1" stroke="none"/>
<path d="M182.26 177.842C187.179 178.617 190.081 182.971 188.743 187.568C187.405 192.166 182.333 195.264 177.415 194.49C172.497 193.715 169.594 189.36 170.932 184.763C172.27 180.166 177.342 177.068 182.26 177.842Z" fill="#f9f9f9" fill-rule="evenodd" opacity="1" stroke="#272330" stroke-linecap="butt" stroke-linejoin="round" stroke-width="0.400518"/>
<path d="M174.262 186.59C174.262 183.914 176.49 181.744 179.24 181.744C181.989 181.744 184.218 183.914 184.218 186.59C184.218 189.267 181.989 191.437 179.24 191.437C176.49 191.437 174.262 189.267 174.262 186.59Z" fill="#000000" fill-rule="evenodd" opacity="1" stroke="none"/>
<path d="M180.453 184.006C180.453 183.495 180.889 183.081 181.428 183.081C181.966 183.081 182.403 183.495 182.403 184.006C182.403 184.517 181.966 184.931 181.428 184.931C180.889 184.931 180.453 184.517 180.453 184.006Z" fill="#f9f9f9" fill-rule="evenodd" opacity="1" stroke="none"/>
<path d="M194.528 179.812C193.9 176.148 194.3 172.638 195.449 169.963C196.536 167.433 198.293 165.649 200.486 165.189C202.34 164.8 204.217 165.417 205.87 166.774C208.239 168.718 210.148 172.184 210.867 176.384C212.088 183.513 209.421 190.06 204.908 191.007C200.396 191.953 195.749 186.941 194.528 179.812Z" fill="#f9f9f9" fill-rule="evenodd" opacity="1" stroke="#272330" stroke-linecap="butt" stroke-linejoin="round" stroke-width="0.489275"/>
<path d="M197.948 178.496C197.948 175.819 200.176 173.649 202.926 173.649C204.518 173.649 205.935 174.377 206.847 175.509C207.509 176.332 207.904 177.369 207.904 178.496C207.904 181.172 205.675 183.342 202.926 183.342C200.176 183.342 197.948 181.172 197.948 178.496Z" fill="#000000" fill-rule="evenodd" opacity="1" stroke="none"/>
<path d="M204.201 175.436C204.201 174.925 204.638 174.511 205.177 174.511C205.715 174.511 206.152 174.925 206.152 175.436C206.152 175.947 205.715 176.362 205.177 176.362C204.638 176.362 204.201 175.947 204.201 175.436Z" fill="#f9f9f9" fill-rule="evenodd" opacity="1" stroke="none"/>
<path d="M188.421 212.353L201.155 209.822" fill="none" fill-rule="evenodd" opacity="1" stroke="#272330" stroke-linecap="round" stroke-linejoin="round" stroke-width="1.3591"/>
</g>
</svg>


